# xmcd CD database file
#
# Track frame offsets:
#	150
#	13555
#	26842
#	42237
#	55522
#	69385
#	83560
#	100120
#	113535
#	128105
#	141177
#	158260
#	172000
#	185542
#	200190
#	212737
#	226295
#	238827
#	256230
#	268935
#	282230
#	296140
#
# Disc length: 4142 seconds
#
# Revision: 2
# Processed by: cddbd v1.5.2PL0 Copyright (c) Steve Scherf et al.
# Submitted via: CDex 1.40Beta5
#
DISCID=3a102c16
DTITLE=Dr Hook - Dr Hook - Greatest Hits
DYEAR=1900
DGENRE=Blues
TTITLE0=When you're in love with a beautiful woman
TTITLE1=Sharing the night together
TTITLE2=I don't want to be alone tonight
TTITLE3=A little bit more
TTITLE4=Walk right in
TTITLE5=Everybody's making it big but me
TTITLE6=More like the movies
TTITLE7=Years from now
TTITLE8=Sleeping late
TTITLE9=On the cover of the Rolling Stone
TTITLE10=Baby makes her blue jeans talk
TTITLE11=Better love next time
TTITLE12=Sexy eyes
TTITLE13=If not you
TTITLE14=Making love and music
TTITLE15=The millionaire
TTITLE16=Only sixteen
TTITLE17=Sylvia's mother
TTITLE18=Red-winged blackbird
TTITLE19=Let the loose ends drag
TTITLE20=Levitate
TTITLE21=Girls can get it
EXTD=ID3G:   0
EXTT0=
EXTT1=
EXTT2=
EXTT3=
EXTT4=
EXTT5=
EXTT6=
EXTT7=
EXTT8=
EXTT9=
EXTT10=
EXTT11=
EXTT12=
EXTT13=
EXTT14=
EXTT15=
EXTT16=
EXTT17=
EXTT18=
EXTT19=
EXTT20=
EXTT21=
PLAYORDER=
